<svg xmlns="http://www.w3.org/2000/svg" viewBox="0 0 315 322" shape-rendering="geometricPrecision" text-rendering="geometricPrecision" image-rendering="optimizeQuality" fill-rule="evenodd" clip-rule="evenodd"><defs><style type="text/css"><![CDATA[
    .fil0 {fill:#003333;fill-rule:nonzero}
   ]]></style></defs><path class="fil0" d="M166 104h-114v66c0 3 1 5 2 6 1 2 4 3 7 3v4h-62v-4c4-1 6-2 7-4 1-1 2-3 2-6v-156c0-3-1-5-2-6s-4-3-7-4v-4h62v4c-3 1-6 2-7 3s-2 4-2 6v59h114v-59c0-3-1-5-2-6-1-2-4-3-7-3v-4h62v4c-3 1-6 2-7 4-1 1-2 3-2 6v103c15 0 28 2 39 5s25 10 42 19c8 5 13 7 15 7s4-1 7-4l4 3-27 41-4-3v-4c0-3-1-5-4-8-2-2-7-5-13-9-17-10-35-14-54-14h-4v19c0 3 1 5 2 6s4 3 7 4v4h-62v-4c3-1 6-2 7-3s2-4 2-6v-8l-7 5c-16 13-24 30-24 52 0 21 8 39 24 52 13 11 31 17 54 17 19 0 37-5 54-14 6-3 10-6 13-9 2-2 4-5 4-8v-4l4-3 27 41-4 3c-3-3-5-4-7-4s-7 2-15 7c-17 10-31 16-42 19s-25 5-40 5c-31 0-57-7-77-22-12-9-21-19-28-32-8-15-12-31-12-48 0-24 7-45 21-62 13-17 31-28 53-35v-19z" id="Layer_x0020_1"/></svg>