<svg xmlns="http://www.w3.org/2000/svg" viewBox="0 0 47092 7141" shape-rendering="geometricPrecision" text-rendering="geometricPrecision" image-rendering="optimizeQuality" fill-rule="evenodd" clip-rule="evenodd"><defs><style type="text/css"><![CDATA[
    .str0 {stroke:#003333;stroke-width:266.469}
    .fil1 {fill:none}
    .fil0 {fill:#003333;fill-rule:nonzero}
   ]]></style></defs><g id="_270987024"><path class="fil0" d="M3436 2298h-2353v1426c0 58 14 103 44 135 29 33 77 56 148 74v93h-1275v-93c73-20 122-45 150-75 28-31 42-75 42-134v-3353c0-58-14-103-42-134-29-31-78-55-150-75v-93h1275v93c-71 18-122 42-150 74s-42 76-42 135v1275h2353v-1275c0-58-14-103-42-135-29-33-78-56-150-74v-93h1275v93c-71 20-122 45-150 75-27 31-42 75-42 134v3353c0 58 14 103 42 134 29 31 79 55 150 75v93h-1275v-93c70-18 119-42 148-74 30-32 44-76 44-135v-1426zm2737-1223v2651c0 60 14 106 42 139 29 32 79 58 150 79v81h-1185v-81c70-18 120-43 148-75 30-33 44-79 44-139v-2654c0-60-14-106-42-137-29-31-78-57-150-78v-81h1185v81c-71 20-121 45-150 77-28 32-42 77-42 138zm4001-3l-404 757-72-38c0-63-21-114-63-150-113-99-281-180-502-243-221-64-446-96-673-96-194 0-365 26-514 78-215 75-324 184-324 328 0 95 52 161 155 201 104 40 304 71 601 95l473 35c413 31 727 108 942 231 120 69 218 162 296 278 98 145 147 308 147 490 0 330-153 591-460 783-293 183-690 275-1190 275-505 0-992-104-1463-311-32-13-59-20-81-20-40 0-78 23-111 69l-75-29 344-794 75 29v24c0 50 20 93 60 128 99 85 272 158 518 222 245 62 487 94 727 94 211 0 400-27 567-81 207-65 311-172 311-319 0-118-71-200-215-245-96-32-268-57-517-78l-470-39c-253-19-446-44-580-75s-250-76-350-136c-128-77-227-183-299-317-71-133-107-279-107-437 0-355 157-627 473-814 287-170 642-255 1065-255 230 0 443 25 642 74 198 49 435 136 710 259 82 37 138 55 170 55s72-22 122-64l71 38zm2452 296v2360c0 59 14 105 42 138 29 32 79 58 150 79v81h-1185v-81c70-18 120-43 148-75 30-33 44-79 44-139v-2362h-987c-64 0-112 14-145 42-34 29-59 77-80 146h-81v-963h81c18 68 44 116 77 143 33 29 81 43 145 43h2778c64 0 112-14 145-41 34-28 59-76 80-145h81v963h-81c-20-69-46-118-80-146-33-28-81-42-145-42h-987zm3510-658c532 0 975 132 1330 394 425 318 637 759 637 1325 0 531-212 955-637 1272-351 262-792 394-1325 394-532 0-973-132-1324-394-427-318-640-750-640-1299 0-554 213-986 640-1298 352-256 792-388 1319-394zm3 614c-345 0-626 107-843 322-201 201-302 453-302 756 0 302 101 553 302 754 217 217 499 325 845 325 345 0 626-108 843-325 201-199 302-445 302-739 0-319-101-576-302-771-218-211-501-318-845-322zm3471 1368v1035c0 59 14 106 42 138 29 32 79 58 150 79v81h-1185v-81c70-18 119-43 148-75 30-33 44-79 44-139v-2654c0-60-14-106-42-137-29-31-78-57-150-78v-81h2194c286 0 502 14 652 42 149 29 283 79 401 152 241 153 361 403 361 748 0 263-75 469-222 616-149 148-389 255-720 321l634 856c115 157 208 265 277 322 68 57 147 93 235 109v81h-1408v-81c104-27 156-70 156-130 0-42-33-108-96-194l-670-928h-802zm0-589h1207c184 0 319-20 406-58 124-51 186-155 186-310 0-138-43-232-130-287-87-54-241-81-462-81h-1207v736zm5021 498v1128c0 60 14 106 42 138 29 33 79 59 150 80v78h-1185v-78c72-20 121-45 150-77 28-32 42-78 42-141v-1128l-993-1324c-111-149-201-251-267-306s-146-92-238-112v-81h1508v81c-130 33-194 92-194 177 0 43 46 128 140 254l487 655 476-655c94-129 141-215 141-257 0-81-64-139-192-174l-3-81h1436v81c-92 20-172 56-238 112-66 54-156 156-267 306l-993 1324zm5756 63l568 826-77 52c-56-51-102-75-138-75s-137 46-302 139c-343 191-631 321-865 387s-512 100-836 100c-643 0-1172-147-1584-443-244-172-435-386-575-641-161-291-242-613-242-965 0-479 145-895 434-1249 435-531 1091-797 1970-797 324 0 600 33 832 99 231 65 520 195 867 388 165 91 266 136 302 136s82-25 138-75l77 52-568 826-81-52c4-31 6-56 6-78 0-55-25-109-75-157-50-49-139-109-266-178-352-193-726-290-1121-290-466 0-838 113-1116 339-327 264-490 610-490 1037 0 426 163 773 490 1037 278 227 649 339 1116 339 395 0 769-97 1121-290 128-69 216-129 266-178s75-102 75-158c0-21-2-46-6-75l81-55zm2099 28v1035c0 59 14 106 42 138 29 32 79 58 150 79v81h-1185v-81c70-18 120-43 148-75 30-33 44-79 44-139v-2654c0-60-14-106-42-137-29-31-78-57-150-78v-81h2194c286 0 502 14 652 42 149 29 283 79 401 152 241 153 361 403 361 748 0 263-75 469-222 616-149 148-389 255-720 321l634 856c115 157 208 265 277 322 68 57 147 93 235 109v81h-1408v-81c104-27 156-70 156-130 0-42-33-108-96-194l-670-928h-802zm0-589h1207c184 0 319-20 406-58 124-51 186-155 186-310 0-138-43-232-130-287-87-54-241-81-462-81h-1207v736zm5903 1110h-1540l-174 353c-42 85-62 152-62 200 0 93 63 152 192 177v81h-1233v-81c75-12 132-34 169-66 37-34 80-98 130-195l1223-2399c46-91 69-170 69-238 0-79-56-141-167-185v-81h1300v81c-109 43-164 108-164 197 0 64 24 142 75 234l1268 2328c70 127 125 208 164 245 40 38 101 64 183 79v81h-1367v-81c130-21 194-80 194-176 0-59-25-134-75-223l-185-331zm-241-455l-548-1044-523 1044h1071zm2944-114v1082c0 59 14 105 42 138 29 32 79 58 150 79v81h-1185v-81c70-18 119-43 148-75 30-33 44-79 44-139v-2654c0-60-14-106-42-137-29-31-78-57-150-78v-81h3002c64 0 112-14 145-41 34-28 59-76 80-145h81v963h-81c-20-69-46-118-80-146-33-28-81-42-145-42h-2009v712h1262c64 0 112-14 144-41 32-28 59-76 81-145h81v939h-81c-20-69-46-118-80-146-33-28-81-42-145-42h-1262zm4709-1277v2360c0 59 14 105 42 138 29 32 79 58 150 79v81h-1185v-81c70-18 119-43 148-75 30-33 44-79 44-139v-2362h-987c-64 0-112 14-145 42-34 29-59 77-80 146h-81v-963h81c18 68 44 116 77 143 33 29 81 43 145 43h2778c64 0 112-14 145-41 34-28 59-76 80-145h81v963h-81c-20-69-46-118-80-146-33-28-81-42-145-42h-987z"/><line class="fil1 str0" x1="1089" y1="7008" x2="45636" y2="7008"/></g></svg>