<?xml version="1.0" encoding="UTF-8"?>
<!DOCTYPE svg PUBLIC "-//W3C//DTD SVG 1.1//EN" "http://www.w3.org/Graphics/SVG/1.1/DTD/svg11.dtd">
<!-- Creator: CorelDRAW X5 -->
<svg xmlns="http://www.w3.org/2000/svg" xml:space="preserve" style="shape-rendering:geometricPrecision; text-rendering:geometricPrecision; image-rendering:optimizeQuality; fill-rule:evenodd; clip-rule:evenodd"
viewBox="0 0 315 322"
 xmlns:xlink="http://www.w3.org/1999/xlink">
 <defs>
  <style type="text/css">
   <![CDATA[
    .fil0 {fill:#003333;fill-rule:nonzero}
   ]]>
  </style>
 </defs>
 <g id="Layer_x0020_1">
  <metadata id="CorelCorpID_0Corel-Layer"/>
  <path class="fil0" d="M166 104l-114 0 0 66c0,3 1,5 2,6 1,2 4,3 7,3l0 4 -62 0 0 -4c4,-1 6,-2 7,-4 1,-1 2,-3 2,-6l0 -156c0,-3 -1,-5 -2,-6 -1,-1 -4,-3 -7,-4l0 -4 62 0 0 4c-3,1 -6,2 -7,3 -1,1 -2,4 -2,6l0 59 114 0 0 -59c0,-3 -1,-5 -2,-6 -1,-2 -4,-3 -7,-3l0 -4 62 0 0 4c-3,1 -6,2 -7,4 -1,1 -2,3 -2,6l0 103c15,0 28,2 39,5 11,3 25,10 42,19 8,5 13,7 15,7 2,0 4,-1 7,-4l4 3 -27 41 -4 -3c0,-2 0,-3 0,-4 0,-3 -1,-5 -4,-8 -2,-2 -7,-5 -13,-9 -17,-10 -35,-14 -54,-14 -1,0 -3,0 -4,0l0 19c0,3 1,5 2,6 1,1 4,3 7,4l0 4 -62 0 0 -4c3,-1 6,-2 7,-3 1,-1 2,-4 2,-6l0 -8c-2,2 -5,3 -7,5 -16,13 -24,30 -24,52 0,21 8,39 24,52 13,11 31,17 54,17 19,0 37,-5 54,-14 6,-3 10,-6 13,-9 2,-2 4,-5 4,-8 0,-1 0,-2 0,-4l4 -3 27 41 -4 3c-3,-3 -5,-4 -7,-4 -2,0 -7,2 -15,7 -17,10 -31,16 -42,19 -11,3 -25,5 -40,5 -31,0 -57,-7 -77,-22 -12,-9 -21,-19 -28,-32 -8,-15 -12,-31 -12,-48 0,-24 7,-45 21,-62 13,-17 31,-28 53,-35l0 -19z"/>
 </g>
</svg>
